<?xml version="1.0" encoding="utf-8"?>
<!-- Generator: Adobe Illustrator 19.0.0, SVG Export Plug-In . SVG Version: 6.00 Build 0)  -->
<svg version="1.1" id="Layer_1" xmlns="http://www.w3.org/2000/svg" xmlns:xlink="http://www.w3.org/1999/xlink" x="0px" y="0px"
	 viewBox="0 0 346 119.5" style="enable-background:new 0 0 346 119.5;" xml:space="preserve">
<style type="text/css">
	.st0{fill:#FFF200;}
	.st1{fill:#EC008C;}
	.st2{fill:#00AEEF;}
	.st3{fill:#FFFFFF;}
</style>
<g id="XMLID_51_">
	<g id="XMLID_7_">
		<path id="XMLID_8_" class="st0" d="M346,101.5H0V85.1V51V0h113.9h118.3H346V101.5z"/>
	</g>
	<g id="XMLID_65_">
		<path id="XMLID_67_" class="st1" d="M324,119.5H23v-16.5V69V18h113.9h118.3H324V119.5z"/>
	</g>
	<g id="XMLID_60_">
		<path id="XMLID_61_" class="st2" d="M314.5,92.5h-301V0h113.9h118.3h68.9V92.5z"/>
	</g>
	<g id="XMLID_52_">
		<path id="XMLID_58_" class="st3" d="M115.1,92.5H99.5v18H37.7v-18H22.5v-15h15.2v15h46.9V61.2H38V46.5H22.5V0H53v45.9h31.6V0h30.5
			V92.5z"/>
		<path id="XMLID_55_" class="st3" d="M183.4,42H153V11.5h30.4V42z M183.4,119.5H153V57.9h30.4V119.5z"/>
		<path id="XMLID_53_" class="st3" d="M315,15.5v15.8h-14.7V15.5h-0.6V15h-45.6v15.1h31.2v16.5h14.4v15H315V77h-15.3v15.6h-61.5v-15
			h-0.3V77h-15.1V61h15.1V77h0.3v0.6h45.6V62.4h-31V46l-14.6-0.3v-15h-15.4V15.5h15.4V0h61.5v15h0.6v0.5H315z"/>
	</g>
</g>
</svg>
