<?xml version="1.0" encoding="utf-8"?>
<!-- Generator: Adobe Illustrator 19.0.0, SVG Export Plug-In . SVG Version: 6.00 Build 0)  -->
<svg version="1.1" id="Layer_1" xmlns="http://www.w3.org/2000/svg" xmlns:xlink="http://www.w3.org/1999/xlink" x="0px" y="0px"
	 viewBox="0 0 800 258" style="enable-background:new 0 0 800 258;" xml:space="preserve">
<style type="text/css">
	.st0{fill:#00AEEF;}
	.st1{fill:#EC008C;}
	.st2{fill:#FFF200;}
	.st3{fill:#FFFFFF;}
</style>
<rect id="XMLID_59_" x="0" y="74.6" class="st0" width="800" height="115.2"/>
<rect id="XMLID_58_" x="17" y="0" class="st1" width="498.1" height="98.2"/>
<rect id="XMLID_57_" x="78.5" y="171.2" class="st2" width="498.1" height="86.8"/>
<g id="XMLID_2_">
	<g id="XMLID_44_">
		<path id="XMLID_55_" class="st3" d="M91.6,87.1H79.1v12.5H29.6V87.4h-0.4v-0.4H17V75h12.2v12h0.4v0.5h37.5V61.8H29.5V49.9H17V12.5
			h24.5v37h25.5v-37h24.5V87.1z"/>
		<path id="XMLID_52_" class="st3" d="M190.4,62.3h-12.6v12.3h-49.6V62.3h-12.5V12.6h12.5V0h49.6v12.6h12.6V62.3z M165.5,62.3V12.6
			h-24.8v49.7H165.5z"/>
		<path id="XMLID_50_" class="st3" d="M289.2,74.6h-62.1V62.5h-12.5V0h24.5v62.3h25.5V0h24.5V74.6z"/>
		<path id="XMLID_48_" class="st3" d="M388,74.6h-24.5V12.3h-25.5v62.3h-24.5V0h62l0.1,12.3H388V74.6z"/>
		<path id="XMLID_45_" class="st3" d="M486.8,74.6h-12.5v12.5h-49.6V75h-0.4v-0.4h-12.2V62.5h12.2v12h0.4V75h37.5V49.3h-37.5V37
			h-12.6V12.6h12.6V0h62V74.6z M461.9,37V12.6h-24.8V37H461.9z"/>
	</g>
	<g id="XMLID_18_">
		<path id="XMLID_41_" class="st3" d="M24.5,123H0V98.4h24.5V123z M24.5,184.3H0v-48.5h24.5V184.3z"/>
		<path id="XMLID_39_" class="st3" d="M115.8,176.3H91.3V117H65.8v67.3H41.2v-79.7h62l0.1,12.3h12.5V176.3z"/>
		<path id="XMLID_37_" class="st3" d="M203.6,160.3h-24.5V98h-25.5v71.8H129V85.7h62l0.1,12.3h12.5V160.3z"/>
		<path id="XMLID_34_" class="st3" d="M289.2,147.9h-12.6v12.3h-49.6v-12.3h-12.5V98.2h12.5V85.7h49.6v12.6h12.6V147.9z
			 M264.3,147.9V98.2h-24.8v49.7H264.3z"/>
		<path id="XMLID_32_" class="st3" d="M388,135.2h-12.6v12.6h-12v0.4H363v12.1h-49.6V85.7h24.5v62.5h25v-0.4h0.5V85.7H388V135.2z"/>
		<path id="XMLID_28_" class="st3" d="M475.5,171.2h-62.1v-12.3h-12.5v-24.8h12.5v-12.9h-12.5v-12h12.5V96.6h49.6v12.6h12.6V171.2z
			 M450.6,121.2v-12h-37.2v12H450.6z M450.6,158.9v-24.8h-24.8v24.8H450.6z"/>
		<path id="XMLID_26_" class="st3" d="M558.3,166.6h-37.1v-11.7l-12.5-0.8v-49.9h-25V92h25V79.6h24.5V92h25v12.1h-25v49.7l25,0.7
			V166.6z"/>
		<path id="XMLID_23_" class="st3" d="M644.9,158.9h-12.6v12.3h-49.6v-12.3h-12.5v-49.7h12.5V96.6h49.6v12.6h12.6V158.9z M620,158.9
			v-49.7h-24.8v49.7H620z"/>
		<path id="XMLID_21_" class="st3" d="M731.1,116.7H694v0.5h-0.5v12H681v50.1h-24.5v-74.6H681v12.6h12.5v-0.5h0.5v-12.1h37.1V116.7z
			"/>
		<path id="XMLID_19_" class="st3" d="M800,127.7v12.7h-11.8v-12.7h-0.5v-0.4h-36.8v12.2h25.1v13.3h11.6v12.1H800v12.3h-12.3v12.6
			h-49.6v-12.1h-0.2v-0.5h-12.2v-12.8h12.2v12.8h0.2v0.5h36.8v-12.2h-25v-13.2l-11.7-0.2V140h-12.5v-12.3h12.5v-12.5h49.6v12.1h0.5
			v0.4H800z"/>
	</g>
	<g id="XMLID_3_">
		<path id="XMLID_16_" class="st3" d="M166,195.2v12.7h-11.8v-12.7h-0.5v-0.4h-36.8v12.2h25.1v13.3h11.6v12.1H166v12.3h-12.3v12.6
			h-49.6v-12.1h-0.2v-0.5H91.6V232h12.2v12.8h0.2v0.5h36.8v-12.2h-25v-13.2l-11.7-0.2v-12.1H91.6v-12.3h12.5v-12.5h49.6v12.1h0.5
			v0.4H166z"/>
		<path id="XMLID_13_" class="st3" d="M253.1,257.4h-24.5v-25.5h-37.5v-12.6h-12.6v-36.9h12.6v-12.6h62V257.4z M228.2,219.3v-36.9
			h-24.8v36.9H228.2z"/>
		<path id="XMLID_11_" class="st3" d="M338.8,257.4h-62.1v-12.1h-12.5v-69h24.5v68.7h25.5v-68.7h24.5V257.4z"/>
		<path id="XMLID_7_" class="st3" d="M425.8,257.4h-62.1v-18.8h-12.5v-24.8h12.5v-12.9h-12.5v-12h12.5v-12.6h49.6v12.6h12.6V257.4z
			 M400.9,200.9v-12h-37.2v12H400.9z M400.9,238.6v-24.8h-24.8v24.8H400.9z"/>
		<path id="XMLID_4_" class="st3" d="M510.3,257.4h-62.1v-12.3h-12.5v-37.2h12.5v-12.6h37.6v-34.8h24.5V257.4z M485.4,245.1v-37.2
			h-24.8v37.2H485.4z"/>
	</g>
</g>
</svg>
