<?xml version="1.0" encoding="utf-8"?>
<!-- Generator: Adobe Illustrator 19.0.0, SVG Export Plug-In . SVG Version: 6.00 Build 0)  -->
<svg version="1.1" id="Layer_1" xmlns="http://www.w3.org/2000/svg" xmlns:xlink="http://www.w3.org/1999/xlink" x="0px" y="0px"
	 viewBox="0 0 800 276.3" style="enable-background:new 0 0 800 276.3;" xml:space="preserve">
<style type="text/css">
	.st0{fill:#FFF200;}
	.st1{fill:#EC008C;}
	.st2{fill:#00AEEF;}
</style>
<g id="XMLID_51_">
	<g id="XMLID_7_">
		<path id="XMLID_8_" class="st0" d="M800,234.7H0v-37.9v-78.8V0h263.4h273.5H800V234.7z"/>
	</g>
	<g id="XMLID_65_">
		<path id="XMLID_67_" class="st1" d="M749.1,276.3h-696v-38.2v-78.6V41.6h263.4h273.5h159.1V276.3z"/>
	</g>
	<g id="XMLID_60_">
		<path id="XMLID_61_" class="st2" d="M727.2,213.9h-696V0h263.4h273.5h159.3v213.9H727.2z"/>
	</g>
	<g id="XMLID_52_">
		<path id="XMLID_58_" d="M266.1,213.9h-36.1v41.6H87.2v-41.6H52v-34.7h35.1v34.7h108.4v-72.4H87.9v-34H52V0h70.5v106.1h73.1V0h70.5
			V213.9z"/>
		<path id="XMLID_55_" d="M424,97.1h-70.3V26.6H424V97.1z M424,276.3h-70.3V133.9H424V276.3z"/>
		<path id="XMLID_53_" d="M728.3,35.8v36.5h-34V35.8h-1.4v-1.2H587.5v34.9h72.1v38.2h33.3v34.7h35.4V178h-35.4v36.1H550.8v-34.7
			h-0.7V178h-34.9v-37h34.9v37h0.7v1.4h105.4v-35.1h-71.7v-37.9l-33.8-0.7V71h-35.6V35.8h35.6V0h142.2v34.7h1.4v1.2H728.3z"/>
	</g>
</g>
</svg>
